<?xml version="1.0" encoding="utf-8"?>
<!-- Generator: Adobe Illustrator 19.2.0, SVG Export Plug-In . SVG Version: 6.00 Build 0)  -->
<svg version="1.1" id="Layer_1" xmlns="http://www.w3.org/2000/svg" xmlns:xlink="http://www.w3.org/1999/xlink" x="0px" y="0px"
	 viewBox="0 0 512 512" style="enable-background:new 0 0 512 512;" xml:space="preserve">
<style type="text/css">
	#headphoneStatus{fill:orangered;stroke:#000000;stroke-width:0;stroke-miterlimit:10;}
</style>
<g id="headphoneStatus">
	<defs>
		<filter id="filter" x="0" y="0">
			<feGaussianBlur stdDeviation="0" />
			<feOffset dx="10" dy="10" />
		</filter>
  </defs>
	
	<path class="st1" d="M472.9,327.1v54.4c0,30.1-24.4,54.4-54.4,54.4c-15,0-27.2-12.2-27.2-27.2V245.5c0-75.2-60.9-136.1-136.1-136.1
		c-75.1,0-136.1,60.9-136.1,136.1v163.3c0,15-12.2,27.2-27.2,27.2c-30.1,0-54.4-24.4-54.4-54.4v-54.4c0-30.1,24.4-54.4,54.4-54.4
		v-27.2c0-90.2,73.1-163.3,163.3-163.3s163.3,73.1,163.3,163.3v27.2C448.6,272.7,472.9,297.1,472.9,327.1z" fill="black" filter="url(#filter)"/>
	<path class="st1" d="M472.9,327.1v54.4c0,30.1-24.4,54.4-54.4,54.4c-15,0-27.2-12.2-27.2-27.2V245.5c0-75.2-60.9-136.1-136.1-136.1
		c-75.1,0-136.1,60.9-136.1,136.1v163.3c0,15-12.2,27.2-27.2,27.2c-30.1,0-54.4-24.4-54.4-54.4v-54.4c0-30.1,24.4-54.4,54.4-54.4
		v-27.2c0-90.2,73.1-163.3,163.3-163.3s163.3,73.1,163.3,163.3v27.2C448.6,272.7,472.9,297.1,472.9,327.1z"/>
	<g>
		<rect id="onOffTemp" x="246.6" y="-31.7" transform="matrix(0.6568 -0.7541 0.7541 0.6568 -98.9345 280.1183)" width="23.4" height="560.9"/>
		<rect id="onOff" x="246.6" y="-31.7" transform="matrix(0.6568 -0.7541 0.7541 0.6568 -98.9345 280.1183)" width="23.4" height="560.9"/>
	</g>
</g>
</svg>